<svg id="Layer_1" data-name="Layer 1" xmlns="http://www.w3.org/2000/svg" viewBox="0 0 411.25 352.54"><defs><style>.cls-1{fill:#18682e;}</style></defs><path class="cls-1" d="M345,169.71h26.18V156.45c-1.91,0-3.92.05-5.93,0-4.27-.12-6.93-2.63-7-6.51s2.59-6.65,6.77-6.69q13-.13,26.08,0c4.22,0,6.87,2.71,6.86,6.6s-2.66,6.46-6.9,6.6c-1.91.06-3.84,0-6,0v12.82A81.09,81.09,0,0,1,393,171a26.25,26.25,0,0,1,18.25,25q.06,12.84,0,25.68c0,5.46-2.31,7.73-7.82,7.75q-12,0-24,0c-5.69,0-7.86-2.27-7.89-8.08,0-3.72,0-7.44,0-11.79H345c0,6-.06,11.76,0,17.5.17,13.49-5.6,23.65-17.2,30.36-2.38,1.37-2.73,2.95-2.72,5.31q.09,38.52,0,77c0,7.08-1.9,8.95-9.11,8.95H254.33c-6.36,0-8.09-1.55-8.74-7.73-1.16-11.11-9.25-18.71-20.45-18.74q-52.37-.13-104.73,0c-11.35,0-19.41,7.79-20.45,19.18-.49,5.36-2.52,7.28-7.92,7.28q-31.86,0-63.74,0c-5.66,0-7.84-2.28-7.84-8.14,0-25.95,0-51.9.05-77.85,0-2.64-.69-4.1-3.09-5.52C6.34,250.56.58,240.78.58,227.78q0-77.85,0-155.71c0-13.17,5.71-23.15,17-29.66C43.31,27.58,71,17.81,99.94,11.55a342.29,342.29,0,0,1,85-7.39c49.24,1.79,96.14,12.7,139.78,36.3C338.66,48,345.31,59,345.1,74.91c-.37,30-.11,59.91-.11,89.87Zm-99.46-69.32a780.91,780.91,0,0,0-145.37,0v98.65c26.27,4.59,129.11,4.42,145.37-.23ZM87.21,335.18c3.9-16.63,18.71-26.7,34.67-26.47,34.49.5,69,.07,103.48.26a37.32,37.32,0,0,1,12.84,2.4c11,4.17,17.29,12.68,20.18,23.66h53.36V266.41q-139.06,59.43-277.83,0v68.76ZM99.93,86.93a799.49,799.49,0,0,1,145.21-.12c.21-.46.43-.7.43-1,0-19.46.1-38.91-.06-58.37,0-.95-1.85-2.53-3-2.71-13.31-2.13-26.6-4.53-40-5.91-33.14-3.41-66-1.11-98.66,5.55-3.48.71-4,2.1-4,5.16.12,17.66.06,35.33.06,53Zm0,125.85c0,20.17,0,39.88.13,59.6,0,.86,1.73,2.3,2.81,2.47,13.45,2.12,26.87,4.55,40.4,5.95,33,3.39,65.77,1.09,98.26-5.53,3.21-.66,4.23-1.67,4.2-5-.17-17.8-.08-35.61-.08-53.41v-4A797.85,797.85,0,0,1,99.93,212.78ZM86.55,28.41c-7.64,2.49-14.62,5-21.72,7-3.65,1-4.76,2.76-4.75,6.64q.21,107.81.11,215.62a18.15,18.15,0,0,0,.06,3.3c.13.69.62,1.68,1.18,1.87,8.23,2.85,16.5,5.59,25.12,8.48Zm172.54,0V271.25c7.53-2.45,14.64-4.93,21.86-7,3.45-1,4.55-2.67,4.54-6.36q-.19-108-.1-216a7.46,7.46,0,0,0-.05-2.46c-.39-1-.94-2.45-1.76-2.74C275.58,33.78,267.5,31.17,259.09,28.38ZM46.75,205.73c-4.75-1-9.07-1.82-13.36-2.77-4.77-1.07-7-4.06-6.23-8.06.77-3.85,4.45-5.92,9-5,3.49.68,7,1.4,10.61,2.13V107.65c-3.85.78-7.46,1.58-11.1,2.23-4.25.76-7.83-1.49-8.52-5.21-.72-3.92,1.46-6.91,5.92-7.91s9.07-1.9,13.71-2.86V42.35c-7.88,4.1-15.33,7.82-22.63,11.82-6.89,3.79-10.26,10-10.28,17.69q-.13,78,0,156c0,5.58,1.75,10.84,6.1,14.42,7.9,6.5,17.37,10.26,26.79,14.6Zm252.1,51.53c7.31-3.76,14.11-7.27,20.92-10.76,8.36-4.28,12.06-11.22,12-20.49-.08-15.59,0-31.17,0-46.76q0-53,0-105.94c0-8.91-3.54-15.69-11.59-19.88-4.64-2.41-9.24-4.89-13.9-7.27-2.36-1.2-4.79-2.24-7.41-3.46V93.89c4.62,1,9.07,1.77,13.46,2.79,4.72,1.1,6.95,4.24,6.07,8.2s-4.52,5.79-9.1,4.88l-10.41-2.06V192l10.35-2.08c4.62-.93,8.29,1,9.16,4.79s-1.34,7.17-6,8.26c-4.5,1.05-9.05,1.9-13.53,2.83Zm46.35-61h31.26c6.08,0,8.24,2.14,8.27,8.12,0,3.82,0,7.64,0,11.46h13.1c.07-.82.15-1.36.15-1.9,0-5.66.1-11.32,0-17-.17-8.36-5.76-13.82-14.21-14-4.27-.07-8.55,0-12.83,0H345.2Z"/></svg>