<svg width="31" height="31" viewBox="0 0 31 31" fill="none" xmlns="http://www.w3.org/2000/svg">
<path d="M17.0621 27.7381C23.146 26.9794 27.8538 21.7895 27.8538 15.5002C27.8538 8.68865 22.332 3.16683 15.5205 3.16683C8.70891 3.16683 3.18709 8.68865 3.18709 15.5002C3.18709 21.7895 7.89487 26.9794 13.9788 27.7381V18.5835H10.8954V15.5002H13.9788V12.9499C13.9788 10.8883 14.1934 10.1407 14.5965 9.38704C14.9995 8.63333 15.5911 8.04183 16.3448 7.63874C16.9348 7.32322 17.6666 7.1328 18.9456 7.05112C19.4531 7.0187 20.1102 7.06005 20.9163 7.17516V10.1043H20.1455C18.7313 10.1043 18.1478 10.1711 17.7989 10.3577C17.5826 10.4734 17.4312 10.6248 17.3154 10.8411C17.1289 11.1899 17.0621 11.5358 17.0621 12.9499V15.5002H20.9163L20.1455 18.5835H17.0621V27.7381ZM15.5205 30.9168C7.00603 30.9168 0.10376 24.0145 0.10376 15.5002C0.10376 6.98577 7.00603 0.0834961 15.5205 0.0834961C24.0348 0.0834961 30.9371 6.98577 30.9371 15.5002C30.9371 24.0145 24.0348 30.9168 15.5205 30.9168Z" fill="white"/>
</svg>
